# xmcd
# 
# Track frame offsets:
#     150
#     11942
#     33495
#     46948
#     68278
#     80237
#     91622
#     113494
#     131494
#     149244
#     158219
#     169412
#     187176
#     202346
#     215671
#     236594
#     250387
# 
# Disc length: 3638
# 
# Revision: 3
# Processed by: cddbd v1.5.2PL0 Copyright (c) Steve Scherf et al.
# Submitted via: fre:ac v1.0.31
# 
DISCID=fe0e3411
DTITLE=John Mayall - A Hard Road [Expanded Edition], Disc 2
DYEAR=1967
DGENRE=Blues
TTITLE0=Looking Back [single a-side]
TTITLE1=So Many Roads [single b-side]
TTITLE2=Sitting in the Rain [single a-side]
TTITLE3=Out of Reach [single b-side]
TTITLE4=Mama, Talk to Your Daughter [session outtake]
TTITLE5=Alabama Blues [session outtake]
TTITLE6=Curly [single a-side]
TTITLE7=Rubber Duck [single b-side]
TTITLE8=Greeny [session outtake]
TTITLE9=Missing You [session outtake]
TTITLE10=Please Don't Tell [session outtake]
TTITLE11=Your Funeral and My Trial [session outtake]
TTITLE12=Double Trouble [single a-side]
TTITLE13=It Hurts Me Too [single b-side]
TTITLE14=Jenny [single b-side]
TTITLE15=Picture on the Wall [single a-side]
TTITLE16=First Time Alone [from "Blues From Laurel Canyon"]
EXTD=
EXTT0=
EXTT1=
EXTT2=
EXTT3=
EXTT4=
EXTT5=
EXTT6=
EXTT7=
EXTT8=
EXTT9=
EXTT10=
EXTT11=
EXTT12=
EXTT13=
EXTT14=
EXTT15=
EXTT16=
PLAYORDER=
